<svg width="76" height="54" viewBox="0 0 76 54" fill="none" xmlns="http://www.w3.org/2000/svg">
<path d="M9.05991 32.0988C8.40564 32.4032 8.11698 33.1694 8.40855 33.8243L11.397 40.1854C11.5439 40.5021 11.8117 40.7487 12.1412 40.8704C12.2855 40.9224 12.4386 40.9492 12.5925 40.9492C12.785 40.9508 12.9751 40.91 13.1502 40.8312L35.7297 30.3741L33.6846 51.5767C33.6451 51.994 33.8073 52.4044 34.1221 52.6832C35.1121 53.4956 36.3457 53.9583 37.6293 54C37.9833 53.9996 38.3351 53.9555 38.6783 53.8689C40.5113 53.3946 41.9326 51.775 42.9021 49.009L51.7878 22.9205L69.386 14.7811C74.5661 12.3846 77.2356 7.52515 75.4429 3.73218C74.4255 1.74971 72.4768 0.401119 70.2495 0.136763C67.7747 -0.233585 65.2454 0.152434 62.9977 1.24368L42.6892 10.6859L20.8542 2.2178C18.1044 1.19089 15.9266 1.21729 14.3993 2.31059C13.1178 3.35317 12.3886 4.92034 12.4198 6.56381C12.4331 6.98076 12.6449 7.36637 12.9909 7.60474L27.6938 17.6264L19.2736 21.5773L5.15427 18.0211C4.5757 17.88 3.97342 18.1386 3.68019 18.6533L0.160955 24.9348C-0.0216405 25.2676 -0.0503401 25.6627 0.0823436 26.0182C0.214195 26.3741 0.494536 26.6558 0.851825 26.7919L11.3047 31.0723L9.05991 32.0988ZM15.1421 5.9056C15.2203 5.34884 15.5044 4.84199 15.9395 4.48319C16.6969 3.94292 18.0782 4.02211 19.9242 4.70671L39.3692 12.2267L30.4964 16.3355L15.1421 5.9056ZM3.18897 24.922L5.49991 20.8527L19.0873 24.1974C19.3801 24.2708 19.6892 24.2431 19.9645 24.119L64.1269 3.66661C65.8826 2.80796 67.8599 2.49535 69.7982 2.77085C71.1575 2.89498 72.3683 3.67279 73.0392 4.85147C74.1539 7.22243 71.9627 10.6859 68.2567 12.3978L52.9561 19.5099L53.8862 16.783C54.1212 16.0815 53.7373 15.3235 53.0297 15.0909C52.3214 14.8583 51.5573 15.2389 51.3227 15.9404L40.3915 48.192C39.7406 50.0231 38.9303 51.1164 38.0274 51.3527C37.4679 51.4595 36.8889 51.3507 36.4069 51.0504L39.0634 23.394C39.1329 22.6669 38.5951 22.0215 37.861 21.9526C37.1277 21.8829 36.4767 22.417 36.4069 23.1441L35.9955 27.3713L13.203 37.9068L11.3313 33.9559L15.076 32.218C15.5581 32.0072 15.8688 31.5346 15.8688 31.0129C15.8688 30.4908 15.5581 30.0182 15.076 29.8078L3.18897 24.922Z" fill="#FFA902"/>
</svg>
